<?xml version="1.0" encoding="UTF-8"?>
<svg xmlns="http://www.w3.org/2000/svg" xmlns:xlink="http://www.w3.org/1999/xlink" width="20px" height="18px" viewBox="0 0 20 18" version="1.1">
<g id="surface1">
<path style=" stroke:none;fill-rule:nonzero;fill:rgb(18.431373%,78.039216%,45.490196%);fill-opacity:1;" d="M 10 7.894531 L 15.101562 3.34375 L 10 3.34375 C 8.199219 3.34375 6.398438 3.394531 4.699219 3.523438 C 4 3.574219 3.449219 4.113281 3.398438 4.835938 C 3.300781 5.914062 3.25 7.277344 3.25 8.613281 L 3.25 9.359375 C 3.25 10.722656 3.300781 12.058594 3.398438 13.140625 C 3.476562 13.835938 4.023438 14.398438 4.699219 14.425781 C 8.226562 14.683594 11.773438 14.683594 15.300781 14.425781 C 15.976562 14.398438 16.550781 13.835938 16.601562 13.140625 C 16.675781 12.113281 16.726562 10.851562 16.75 9.566406 L 20 6.6875 C 20 6.6875 20 8.691406 20 9.359375 L 20 9.566406 C 20 10.929688 19.949219 12.292969 19.851562 13.398438 C 19.648438 15.761719 17.824219 17.613281 15.523438 17.769531 C 13.75 17.921875 11.875 18 10 18 C 8.125 18 6.25 17.921875 4.476562 17.792969 C 2.175781 17.640625 0.351562 15.789062 0.148438 13.421875 C 0.0507812 12.265625 0 10.824219 0 9.386719 L 0 8.640625 C 0 7.199219 0.0507812 5.761719 0.148438 4.578125 C 0.351562 2.210938 2.175781 0.359375 4.476562 0.207031 C 6.25 0.078125 8.125 0 10 0 L 20 0 L 20 3.34375 L 10 12.265625 L 5.324219 8.101562 L 7.773438 5.914062 Z M 10 7.894531 "/>
</g>
</svg>
