<svg version="1.1" id="Logos" xmlns="http://www.w3.org/2000/svg" xmlns:xlink="http://www.w3.org/1999/xlink" x="0px" y="0px"
	 viewBox="0 0 380 70" style="enable-background:new 0 0 380 70;" xml:space="preserve">
<style type="text/css">
	.st0{fill:#1B1B20;}
	.st1{fill:#2FC774;}
</style>
<g id="HelpDesk_Logo">
	<g id="Wordmark">
		<path class="st0" d="M100.3,57.1h9.5V37.4h19.5v19.6h9.5V9.5h-9.5V29h-19.5V9.5h-9.5V57.1z"/>
		<path class="st0" d="M160.6,57.9c7.8,0,14.1-4.7,15.4-11.2h-8.1c-0.9,2.4-3.3,4.5-7.3,4.5c-5.4,0-7.5-3.6-7.5-7.8v-0.9h23.1v-6.2
			c0-8.5-5.3-15.5-15.8-15.5s-16.3,6.8-16.3,16.4v4.8C144.1,52,150.6,57.9,160.6,57.9z M153.1,35.7c0-4.8,2-8.3,7.3-8.3
			c5,0,7.3,3.3,7.3,7.8V36h-14.6V35.7z"/>
		<path class="st0" d="M180.9,57.1h9.2V7.4h-9.2V57.1z"/>
		<path class="st0" d="M215.8,20.9c-5.1,0-8.7,2.3-10.5,5v-4.2h-8.8v47.2h9.2V53.2c1.8,2.7,5.4,4.6,10.1,4.6
			c9.5,0,14.8-7.1,14.8-15.6v-5.8C230.7,28.1,225.5,20.9,215.8,20.9z M213.6,28.4c5.4,0,7.9,3.8,7.9,8.5v5c0,5-2.7,8.5-8,8.5
			c-4.2,0-7.8-3-7.8-8.4v-5.1C205.8,31.9,208.9,28.4,213.6,28.4L213.6,28.4z"/>
		<path class="st0" d="M235.9,9.5v47.6h19.3c12.8,0,19.5-7.9,19.5-18.7V28.2c0-10.8-6.7-18.7-19.5-18.7L235.9,9.5z M265.3,38.5
			c0,6.9-4,10.9-11.7,10.9h-8.2V17.2h8.2c7.7,0,11.7,4,11.7,10.9V38.5z"/>
		<path class="st0" d="M295,57.9c7.8,0,14.1-4.7,15.4-11.2h-8.1c-0.9,2.4-3.3,4.5-7.3,4.5c-5.4,0-7.5-3.6-7.5-7.8v-0.9h23.1v-6.2
			c0-8.5-5.3-15.5-15.8-15.5s-16.3,6.8-16.3,16.4v4.8C278.5,52,285,57.9,295,57.9z M287.5,35.7c0-4.8,2-8.3,7.3-8.3
			c5,0,7.3,3.3,7.3,7.8V36h-14.6L287.5,35.7z"/>
		<path class="st0" d="M328.9,57.9c8.8,0,15.3-5,15.3-11.8c0-5-2.6-7.8-7.9-9l-10.7-2.7c-1.8-0.4-2.7-1.2-2.7-3c0-2.5,2-3.9,5.8-3.9
			c4.1,0,5.8,1.9,5.8,4.6v0.6h8.1v-0.6c0-7-5.5-11.3-14-11.3s-14.3,4-14.3,11.3c0,5.4,2.8,8.1,8.1,9.3l10.5,2.4
			c2,0.5,2.9,1.5,2.9,3.2c0,2.7-2.9,4.3-6.7,4.3c-4.4,0-7.1-1.8-7.1-4.9V46h-8.2v0.6C313.6,54.1,319.9,57.9,328.9,57.9z"/>
		<path class="st0" d="M348.3,57.1h9.2V39.8l11.6,17.3h10.5L367.1,39l12.2-17.3h-10.5l-11.2,16.5V7.4h-9.2V57.1z"/>
	</g>
	<g id="Mark">
		<path class="st1" d="M40.3,30.7L60.7,13H40.3c-7.2,0-14.4,0.2-21.2,0.7c-2.8,0.2-5,2.3-5.2,5.1c-0.3,4.2-0.6,9.5-0.6,14.8v2.9
			c0,5.3,0.2,10.5,0.6,14.7c0.3,2.7,2.5,4.9,5.2,5c14.1,1,28.3,1,42.4,0c2.7-0.1,5-2.3,5.2-5c0.3-4,0.5-8.9,0.6-13.9l13-11.3
			c0,0,0,7.8,0,10.4v0.8c0,5.3-0.2,10.6-0.6,14.9c-0.8,9.2-8.1,16.4-17.3,17C55.3,69.7,47.8,70,40.3,70s-15-0.3-22.1-0.8
			C9,68.6,1.7,61.4,0.9,52.2c-0.4-4.6-0.6-10.2-0.6-15.8v-2.9c0-5.6,0.2-11.2,0.6-15.8C1.7,8.6,9,1.4,18.2,0.8
			C25.3,0.3,32.8,0,40.3,0h40v13l-40,34.7L21.6,31.5l9.8-8.5L40.3,30.7z"/>
	</g>
</g>
</svg>
